<svg width="120" height="120" viewBox="0 0 120 120" fill="none" xmlns="http://www.w3.org/2000/svg">
<path d="M51.5 2C78.2848 2.00001 100 23.7152 100 50.5C100 54.9227 99.4041 59.2061 98.2949 63.2773C98.0776 63.2578 97.8763 63.25 97.6963 63.25H95.6543C94.4999 63.2502 92.773 63.4889 91.1982 64.6699L91.042 64.7871L90.8936 64.9141C90.8409 64.9593 90.7906 65.0076 90.7402 65.0537C90.6544 64.976 90.5643 64.8982 90.4707 64.8223C88.5968 63.2817 86.4766 63.25 85.7988 63.25H84.043C83.0481 63.2501 81.4113 63.4265 79.8711 64.4531L79.5645 64.6699C79.4287 64.7718 79.3005 64.8775 79.1797 64.9834C79.1688 64.9739 79.1575 64.9636 79.1465 64.9541C77.9802 63.9225 76.6772 63.5161 75.709 63.3555C80.2135 57.9694 81.4424 52.917 81.4424 52.917L71.042 54.9482C71.042 54.9482 68.8305 55.4911 65.627 56.0918C68.4445 52.7634 70.1132 48.5092 70.1133 43.9824C70.1133 37.2325 68.4702 33.6688 65.7598 28.9619C64.0825 26.0454 61.625 19.9712 63.7637 15.125C58.9116 18.973 57.5969 30.1317 57.3154 37.7783C56.4652 34.1016 56.6105 28.297 55.5078 24.8438C52.5769 15.6623 49.2773 11.9596 51.8975 7.6416C48.9607 7.81874 46.0215 12.9988 46.0215 17.459C46.0214 21.7655 44.86 28.7908 42.0742 32.6357C41.8856 24.3275 39.0853 19.0136 36.4678 18.8018C39.1608 25.6677 31.7031 34.1652 31.7031 43.8867C31.7032 48.315 33.4292 52.6479 36.3369 56.0547C34.6304 55.7475 32.9302 55.4038 31.2383 55.0244C27.2133 54.119 21.5373 52.8593 21.5547 52.958C22.6197 55.9702 23.7195 58.9273 28.3857 64.5947L28.8359 65.1172H52.4668C51.8589 65.4863 51.1159 66.0418 50.4717 66.8652L50.2949 67.1016C49.7465 67.8694 49.4355 68.6689 49.2578 69.3682H28.7021V77.6387H49.1494C48.5121 78.8133 48.0946 80.0805 47.8867 81.4023H37.7012C37.7012 86.0415 41.0741 90.0288 45.9082 91.7969C44.4538 94.1973 44.8824 96.8107 46.0596 98.6973C21.8355 95.9933 3 75.4483 3 50.5C3 23.7123 24.7152 2 51.5 2ZM59.3838 98.3613H59.3828C59.2862 98.3212 59.1891 98.2827 59.0928 98.2422C59.1893 98.2828 59.2869 98.3211 59.3838 98.3613ZM59.0928 98.2422C58.8188 98.1269 58.5468 98.0083 58.2754 97.8896C58.5468 98.0083 58.8188 98.1269 59.0928 98.2422ZM58.2754 97.8896C58.1392 97.8301 58.0028 97.7713 57.8672 97.7109C58.0028 97.7713 58.1392 97.8301 58.2754 97.8896ZM57.8672 97.7109C57.5971 97.5906 57.3289 97.4674 57.0615 97.3438C57.3289 97.4674 57.5971 97.5906 57.8672 97.7109ZM57.0615 97.3438C56.9459 97.2903 56.83 97.2377 56.7148 97.1836C56.83 97.2377 56.9459 97.2903 57.0615 97.3438ZM56.7148 97.1836C56.6611 97.1584 56.6063 97.1347 56.5527 97.1094L55.627 96.6611C55.9867 96.8387 56.3499 97.0121 56.7148 97.1836ZM78.3135 88.7207L78.041 88.708L78.0352 88.707C78.1196 88.716 78.2126 88.7207 78.3135 88.7207ZM77.2188 88.1514C77.1856 88.0861 77.1521 88.0144 77.1211 87.9365L77.1172 87.9248C77.1499 88.007 77.184 88.0829 77.2188 88.1514ZM69.7871 84.7773L69.8408 84.9668C69.8217 84.9067 69.8032 84.8438 69.7861 84.7783L69.7383 84.5723C69.7532 84.6433 69.77 84.7117 69.7871 84.7773ZM65.8887 82.6191C65.8575 82.8053 65.8205 82.9809 65.7793 83.1455C65.7998 83.0633 65.8186 82.9782 65.8369 82.8906L65.8887 82.6191ZM56.8135 78.1602C56.6396 78.2555 56.4714 78.3592 56.3086 78.4688C56.3799 78.4208 56.4519 78.3724 56.5254 78.3271L56.8135 78.1602ZM72.043 69.2637C72.0504 69.2621 72.0587 69.26 72.0664 69.2588L72.0889 69.2568C72.0733 69.259 72.0576 69.2606 72.043 69.2637Z" fill="#DA4E31"/>
<path d="M69.5994 83.0136C69.5994 83.8258 69.6872 84.4843 69.8409 84.9673C70.0165 85.4502 70.236 85.977 70.5433 86.5477C70.653 86.7233 70.6969 86.8989 70.6969 87.0526C70.6969 87.2721 70.5652 87.4916 70.2799 87.7111L68.897 88.6331C68.6994 88.7648 68.5018 88.8306 68.3262 88.8306C68.1067 88.8306 67.8872 88.7209 67.6677 88.5233C67.3604 88.194 67.097 87.8428 66.8775 87.4916C66.658 87.1185 66.4385 86.7014 66.197 86.1965C64.4848 88.216 62.3336 89.2257 59.7434 89.2257C57.8996 89.2257 56.4288 88.6989 55.3532 87.6453C54.2777 86.5916 53.7289 85.1868 53.7289 83.4307C53.7289 81.5649 54.3874 80.0503 55.7264 78.9088C57.0654 77.7674 58.8434 77.1966 61.1044 77.1966C61.8507 77.1966 62.619 77.2625 63.4312 77.3722C64.2434 77.482 65.0775 77.6576 65.9555 77.8552V76.2528C65.9555 74.5845 65.6043 73.4211 64.9238 72.7406C64.2214 72.0601 63.0361 71.7309 61.3458 71.7309C60.5776 71.7309 59.7873 71.8187 58.9751 72.0162C58.163 72.2138 57.3727 72.4552 56.6045 72.7626C56.2532 72.9162 55.9898 73.004 55.8362 73.0479C55.6825 73.0918 55.5728 73.1138 55.485 73.1138C55.1776 73.1138 55.024 72.8943 55.024 72.4333V71.3577C55.024 71.0065 55.0679 70.7431 55.1776 70.5894C55.2874 70.4358 55.485 70.2821 55.7923 70.1284C56.5605 69.7333 57.4825 69.4041 58.5581 69.1407C59.6337 68.8553 60.7751 68.7236 61.9824 68.7236C64.5946 68.7236 66.5043 69.3163 67.7336 70.5016C68.9409 71.687 69.5555 73.4869 69.5555 75.9015V83.0136H69.5994ZM60.6873 86.3502C61.4117 86.3502 62.158 86.2185 62.9483 85.9551C63.7385 85.6916 64.4409 85.2087 65.0336 84.5502C65.3848 84.1331 65.6482 83.6722 65.7799 83.1453C65.9116 82.6185 65.9994 81.9819 65.9994 81.2356V80.3137C65.3629 80.16 64.6824 80.0283 63.98 79.9405C63.2775 79.8527 62.5971 79.8088 61.9166 79.8088C60.4459 79.8088 59.3703 80.0942 58.6459 80.6868C57.9215 81.2795 57.5703 82.1136 57.5703 83.2112C57.5703 84.2429 57.8337 85.0112 58.3825 85.538C58.9093 86.0868 59.6776 86.3502 60.6873 86.3502ZM78.3139 88.7209C77.9188 88.7209 77.6554 88.655 77.4798 88.5014C77.3042 88.3697 77.1505 88.0623 77.0188 87.6453L71.8603 70.6772C71.7286 70.2382 71.6628 69.9528 71.6628 69.7992C71.6628 69.448 71.8384 69.2504 72.1896 69.2504H74.3408C74.7579 69.2504 75.0432 69.3163 75.1969 69.4699C75.3725 69.6016 75.5042 69.9089 75.6359 70.326L79.3236 84.8575L82.748 70.326C82.8577 69.887 82.9894 69.6016 83.1651 69.4699C83.3407 69.3382 83.648 69.2504 84.0431 69.2504H85.7992C86.2162 69.2504 86.5016 69.3163 86.6772 69.4699C86.8528 69.6016 87.0065 69.9089 87.0943 70.326L90.5625 85.0331L94.36 70.326C94.4917 69.887 94.6454 69.6016 94.799 69.4699C94.9746 69.3382 95.26 69.2504 95.6551 69.2504H97.6966C98.0478 69.2504 98.2453 69.426 98.2453 69.7992C98.2453 69.9089 98.2234 70.0187 98.2014 70.1504C98.1795 70.2821 98.1356 70.4577 98.0478 70.6992L92.7576 87.6672C92.6259 88.1062 92.4722 88.3916 92.2966 88.5233C92.121 88.655 91.8357 88.7428 91.4625 88.7428H89.5747C89.1577 88.7428 88.8723 88.677 88.6967 88.5233C88.5211 88.3697 88.3674 88.0843 88.2796 87.6453L84.8772 73.4869L81.4968 87.6233C81.387 88.0623 81.2553 88.3477 81.0797 88.5014C80.9041 88.655 80.5968 88.7209 80.2017 88.7209H78.3139ZM106.521 89.3135C105.379 89.3135 104.238 89.1818 103.14 88.9184C102.043 88.655 101.187 88.3697 100.616 88.0404C100.265 87.8428 100.023 87.6233 99.9356 87.4258C99.8477 87.2282 99.8038 87.0087 99.8038 86.8111V85.6916C99.8038 85.2307 99.9795 85.0112 100.309 85.0112C100.44 85.0112 100.572 85.0331 100.704 85.077C100.836 85.1209 101.033 85.2087 101.253 85.2965C101.999 85.6258 102.811 85.8892 103.667 86.0648C104.545 86.2404 105.401 86.3282 106.279 86.3282C107.662 86.3282 108.738 86.0868 109.484 85.6038C110.231 85.1209 110.626 84.4185 110.626 83.5185C110.626 82.9039 110.428 82.399 110.033 81.9819C109.638 81.5649 108.892 81.1917 107.816 80.8405L104.633 79.8527C103.031 79.3478 101.845 78.6015 101.121 77.6137C100.397 76.6479 100.023 75.5723 100.023 74.4308C100.023 73.5089 100.221 72.6967 100.616 71.9943C101.011 71.2918 101.538 70.6772 102.196 70.1943C102.855 69.6894 103.601 69.3163 104.479 69.0529C105.357 68.7894 106.279 68.6797 107.245 68.6797C107.728 68.6797 108.233 68.7016 108.716 68.7675C109.221 68.8333 109.682 68.9211 110.143 69.009C110.582 69.1187 110.999 69.2285 111.394 69.3602C111.789 69.4919 112.096 69.6236 112.316 69.7553C112.623 69.9309 112.843 70.1065 112.974 70.3041C113.106 70.4797 113.172 70.7211 113.172 71.0284V72.0601C113.172 72.5211 112.996 72.7626 112.667 72.7626C112.491 72.7626 112.206 72.6748 111.833 72.4991C110.582 71.9284 109.177 71.6431 107.618 71.6431C106.367 71.6431 105.379 71.8406 104.699 72.2577C104.018 72.6748 103.667 73.3113 103.667 74.2113C103.667 74.8259 103.887 75.3528 104.326 75.7698C104.765 76.1869 105.577 76.604 106.74 76.9771L109.857 77.9649C111.438 78.4698 112.579 79.1722 113.26 80.0722C113.94 80.9722 114.269 82.0039 114.269 83.1453C114.269 84.0892 114.072 84.9453 113.699 85.6916C113.304 86.438 112.777 87.0965 112.096 87.6233C111.416 88.1721 110.604 88.5672 109.66 88.8526C108.672 89.1599 107.64 89.3135 106.521 89.3135Z" fill="#696969"/>
<path fill-rule="evenodd" clip-rule="evenodd" d="M110.67 99.9842C103.448 105.318 92.9552 108.15 83.9334 108.15C71.2897 108.15 59.8971 103.474 51.2924 95.7038C50.6119 95.0892 51.2265 94.2551 52.0387 94.738C61.3459 100.138 72.8262 103.409 84.7017 103.409C92.7138 103.409 101.516 101.74 109.616 98.316C110.823 97.7672 111.855 99.1062 110.67 99.9842Z" fill="#696969"/>
<path fill-rule="evenodd" clip-rule="evenodd" d="M113.677 96.5615C112.755 95.3761 107.574 95.9907 105.226 96.2761C104.523 96.3639 104.414 95.7493 105.05 95.2883C109.177 92.3908 115.96 93.2249 116.75 94.1908C117.54 95.1785 116.53 101.961 112.667 105.21C112.074 105.715 111.504 105.452 111.767 104.793C112.645 102.62 114.599 97.7248 113.677 96.5615Z" fill="#696969"/>
</svg>
